<svg width="94" height="80" viewBox="0 0 94 80" fill="none" xmlns="http://www.w3.org/2000/svg">
<path d="M26.8687 11H66.8687Z" fill="#0A9F39"/>
<path d="M26.8687 11H66.8687" stroke="#030004" stroke-width="0.8" stroke-miterlimit="10"/>
<path d="M24.4683 11H67.3683C67.3683 11 67.3683 11.0333 67.3683 11.1L67.1683 14.5C66.4683 14.6 59.9683 14.7 56.2683 17.5C52.3683 20.4 47.3683 33.6 47.3683 33.7L46.7683 76.8C46.7683 76.9 46.7683 77.1 46.6683 77.1H44.8683C44.7683 77.1 44.6683 76.9 44.6683 76.8L44.5683 33.5C44.5683 33.5 40.8683 22.1 38.7683 20.9C36.6683 19.7 24.8683 14.9 24.5683 14.8L24.4683 11.1C24.4683 11.0333 24.4683 11 24.4683 11Z" fill="#FDFFFF" stroke="black" stroke-width="0.8" stroke-miterlimit="10"/>
<path d="M8.96826 11V22.3H24.4683C24.4683 22.3 29.0683 22.6 31.8683 26.2C33.4683 28.4 33.5683 32.5 33.5683 32.5V70.1L44.7683 77.1C44.7683 77.1 44.8683 77.1 44.8683 77V29.8C44.8683 29.8 45.5683 20.9 39.7683 16.1C33.4683 11 26.1683 11 26.1683 11H8.96826Z" fill="#B10010" stroke="black" stroke-width="0.8" stroke-miterlimit="10"/>
<path d="M82.4685 11.2V22.2C82.4018 22.2667 82.3351 22.3333 82.2685 22.4H66.9685C66.9685 22.4 62.3685 22.6 59.5685 26.2C57.9685 28.4 57.8685 32.6 57.8685 32.6V70C57.8685 70.0667 57.8685 70.1 57.8685 70.1L46.7685 77.1C46.6685 77.1 46.5685 77.1 46.5685 77V29.9C46.5685 29.8 45.8685 20.9 51.6685 16.1C57.9685 11 65.2685 11 65.2685 11H82.2685C82.3351 11 82.4018 11.0667 82.4685 11.2Z" fill="url(#paint0_linear_771_9)" stroke="#000004" stroke-width="0.8" stroke-miterlimit="10"/>
<rect x="6" y="34.7837" width="81" height="22" fill="#B11917"/>
<path d="M9.16846 41.9996V39.3996H21.0685V41.9996H16.8685V52.7996H13.4685V41.9996H9.16846ZM26.1685 45.2996H27.5685C28.3018 45.2996 28.8018 45.1663 29.0685 44.8996C29.4018 44.6329 29.5685 44.1996 29.5685 43.5996C29.5685 42.9996 29.4018 42.5663 29.0685 42.2996C28.8018 42.0329 28.3018 41.8996 27.5685 41.8996H26.1685V45.2996ZM27.0685 47.6996H26.1685V52.7996H22.8685V39.2996H27.9685C29.6351 39.2996 30.8685 39.5996 31.6685 40.1996C32.4685 40.7996 32.8685 41.7329 32.8685 42.9996C32.8685 43.9329 32.6685 44.6663 32.2685 45.1996C31.8685 45.7996 31.2351 46.2329 30.3685 46.4996C30.8351 46.5663 31.2351 46.7996 31.5685 47.1996C31.9685 47.5996 32.3351 48.1663 32.6685 48.8996L34.4685 52.7996H30.9685L29.3685 49.3996C29.0351 48.7329 28.7018 48.2663 28.3685 47.9996C28.1018 47.7996 27.6685 47.6996 27.0685 47.6996ZM36.4685 52.7996V39.2996H39.8685V52.7996H36.4685ZM41.4685 41.8996V39.2996H53.3685V41.8996H49.1685V52.7996H45.7685V41.8996H41.4685ZM61.0685 41.5996C60.0018 41.5996 59.2018 41.9996 58.6685 42.7996C58.1351 43.5329 57.8685 44.6329 57.8685 46.0996C57.8685 47.4996 58.1351 48.5663 58.6685 49.2996C59.2018 50.0996 60.0018 50.4996 61.0685 50.4996C62.0685 50.4996 62.8351 50.0996 63.3685 49.2996C63.9685 48.5663 64.2685 47.4996 64.2685 46.0996C64.2685 44.6329 63.9685 43.5329 63.3685 42.7996C62.8351 41.9996 62.0685 41.5996 61.0685 41.5996ZM61.0685 39.0996C63.1351 39.0996 64.7685 39.6996 65.9685 40.8996C67.1018 42.1663 67.6685 43.8996 67.6685 46.0996C67.6685 48.2329 67.1018 49.9329 65.9685 51.1996C64.7685 52.3996 63.1351 52.9996 61.0685 52.9996C59.0018 52.9996 57.3685 52.3996 56.1685 51.1996C54.9685 49.9329 54.3685 48.2329 54.3685 46.0996C54.3685 43.8996 54.9685 42.1663 56.1685 40.8996C57.3685 39.6996 59.0018 39.0996 61.0685 39.0996ZM70.1685 52.7996V39.2996H73.9685L78.6685 48.4996V39.2996H81.7685V52.7996H78.0685L73.3685 43.4996V52.7996H70.1685Z" fill="#FDFFFF" stroke="black" stroke-width="0.2" stroke-miterlimit="10"/>
<defs>
<linearGradient id="paint0_linear_771_9" x1="46.5645" y1="11.038" x2="82.4235" y2="11.038" gradientUnits="userSpaceOnUse">
<stop stop-color="#626262"/>
<stop offset="0.996" stop-color="#6C6C6C"/>
</linearGradient>
</defs>
</svg>
